<svg width="49" height="49" viewBox="0 0 49 49" fill="none" xmlns="http://www.w3.org/2000/svg">
<g clip-path="url(#clip0_1_4351)">
<path d="M37.4969 25.4742C38.0472 25.3448 38.2619 24.6755 37.8888 24.2508L30.5491 15.8789C29.9791 15.2292 29.1569 14.8561 28.2935 14.8561H28.2916C27.4272 14.857 26.6041 15.2302 26.035 15.8817L16.0713 27.278L11.4513 22.0083C10.8813 21.3586 10.0591 20.9855 9.19566 20.9855H9.19379C8.32848 20.9864 7.50629 21.3595 6.93723 22.0111L1.93848 27.728V9.64453C1.93848 7.46953 3.70098 5.70703 5.87598 5.70703H37.001C39.176 5.70703 40.9385 7.46953 40.9385 9.64453V24.6267C40.9385 24.9867 41.1972 25.2952 41.5525 25.357L41.5675 25.3598C42.0222 25.4395 42.4385 25.0889 42.4385 24.6277V9.64453C42.4385 6.64172 40.0038 4.20703 37.001 4.20703H5.87598C2.87316 4.20703 0.438477 6.64172 0.438477 9.64453V30.6445C0.438477 33.6473 2.87316 36.082 5.87598 36.082H28.946C29.3547 36.082 29.6885 35.7483 29.6885 35.3395V35.332C29.6885 30.5461 33.0269 26.5242 37.4969 25.4742Z" fill="#6A7A7E"/>
<path d="M16.7334 16.0521C18.7159 15.5835 19.943 13.5966 19.4744 11.6142C19.0058 9.63177 17.0189 8.40459 15.0365 8.8732C13.0541 9.3418 11.8269 11.3287 12.2955 13.3111C12.7641 15.2935 14.751 16.5207 16.7334 16.0521Z" fill="#6A7A7E"/>
<path d="M39.8135 26.707C35.0575 26.707 31.1885 30.5761 31.1885 35.332C31.1885 40.088 35.0575 43.957 39.8135 43.957C44.5694 43.957 48.4385 40.088 48.4385 35.332C48.4385 30.5761 44.5694 26.707 39.8135 26.707ZM37.1622 33.9577L39.1675 31.9514C39.2979 31.7302 39.5379 31.5811 39.8135 31.5811C40.0891 31.5811 40.3291 31.7302 40.4594 31.9514L42.4647 33.9577C42.7572 34.2502 42.7572 34.7255 42.4647 35.018C42.1713 35.3105 41.6969 35.3105 41.4044 35.018L40.5635 34.177V38.332C40.5635 38.7464 40.2279 39.082 39.8135 39.082C39.3991 39.082 39.0635 38.7464 39.0635 38.332V34.178L38.2225 35.0189C37.93 35.3114 37.4547 35.3114 37.1622 35.0189C36.8688 34.7255 36.8688 34.2511 37.1622 33.9577Z" fill="#6A7A7E"/>
</g>
<defs>
<clipPath id="clip0_1_4351">
<rect width="48" height="48" fill="white" transform="translate(0.438477 0.0820312)"/>
</clipPath>
</defs>
</svg>
